<svg xmlns="http://www.w3.org/2000/svg" viewBox="0 0 7.438 16">
  <defs>
    <style>
      .cls-1 {
        fill: #fff;
      }
    </style>
  </defs>
  <g id="icon_facebook" transform="translate(0.1 0.051)">
    <path id="Path_74" data-name="Path 74" class="cls-1" d="M4.8,5.126H7.337c-.1.951-.195,1.883-.29,2.827H4.8v8H1.479V7.96H-.1V5.134H1.471V4.906c.007-.668-.026-1.336.029-2A3,3,0,0,1,3.134.3,3.15,3.15,0,0,1,4.5-.042c.921-.018,1.847,0,2.786,0V2.7H5.524a.654.654,0,0,0-.712.675C4.793,3.948,4.8,4.521,4.8,5.126Z"/>
  </g>
</svg>
