<svg xmlns="http://www.w3.org/2000/svg" viewBox="0 0 42.761 64.045">
  <defs>
    <style>
      .cls-1 {
        fill: #000;
      }
    </style>
  </defs>
  <g id="icon_microphone" transform="translate(0 0.041)">
    <path id="Path_69" data-name="Path 69" class="cls-1" d="M101.69,21.247v9.64a11.4,11.4,0,0,1-22.78.824q-.171-10.483,0-20.991a11.392,11.392,0,0,1,22.5-1.826,12.842,12.842,0,0,1,.266,2.7C101.716,14.816,101.69,18.025,101.69,21.247Z" transform="translate(-68.827 0)"/>
    <path id="Path_70" data-name="Path 70" class="cls-1" d="M23.49,199.605v6.862c.254.013.469.038.7.038h6.342c1.446,0,2.131.736,2.207,2.182.14,2.486-.913,2.968-2.93,2.955-6.177-.051-12.341-.013-18.518-.025-1.788,0-2.435-.647-2.435-2.448V208.6a1.915,1.915,0,0,1,2.105-2.08c2.22-.013,4.439,0,6.659,0h.761v-1.4c0-1.674-.013-3.336.013-5.01.013-.469-.127-.66-.609-.748a21.4,21.4,0,0,1-17.757-20.8C-.013,176.28,0,174,.013,171.714a2.44,2.44,0,0,1,3.26-2.537A2.116,2.116,0,0,1,4.9,170.864a4.815,4.815,0,0,1,.127,1.129c.013,2.131-.013,4.274,0,6.405a16.182,16.182,0,0,0,32.153,2.461,40.222,40.222,0,0,0,.241-5.251c.038-1.294-.013-2.575.013-3.868a2.5,2.5,0,0,1,2.879-2.689,2.339,2.339,0,0,1,2.346,2.372c.051,4.2.444,8.409-.7,12.544a21.509,21.509,0,0,1-17.846,15.512C23.934,199.516,23.731,199.567,23.49,199.605Z" transform="translate(0 -147.639)"/>
  </g>
</svg>
