<svg xmlns="http://www.w3.org/2000/svg" viewBox="0 0 47.83 61.164">
  <defs>
    <style>
      .cls-1 {
        fill: #000;
      }
    </style>
  </defs>
  <g id="icon_fire" transform="translate(-0.003)">
    <path id="Path_73" data-name="Path 73" class="cls-1" d="M16.44,34.9a19.723,19.723,0,0,0-2.761,3.008,16.923,16.923,0,0,0-3.372,8.524,14.971,14.971,0,0,0,4,12.247A12.84,12.84,0,0,0,17.3,61.008a.284.284,0,0,1,.143.156c-.533-.136-1.072-.26-1.6-.409A26.769,26.769,0,0,1,8.325,57.46,17.069,17.069,0,0,1,.373,45.935,19.993,19.993,0,0,1,4.505,29.341,40.287,40.287,0,0,1,11.132,23c1.982-1.592,3.976-3.177,5.9-4.834A14.447,14.447,0,0,0,20.7,13.5a12.339,12.339,0,0,0,1.163-5.925A24.419,24.419,0,0,0,20.319.409c-.039-.1-.071-.2-.1-.305-.006-.019.013-.039.026-.1.455.286.9.559,1.345.845a24.692,24.692,0,0,1,7.036,6.6,14.5,14.5,0,0,1,2.612,6.77,12.7,12.7,0,0,1-3.443,10.376,7.441,7.441,0,0,0-1.559,2.216,3.951,3.951,0,0,0,2.7,5.49,5.141,5.141,0,0,0,5.977-3.132,6.311,6.311,0,0,0,.357-2.963,15.221,15.221,0,0,1,.305-4.97,6.942,6.942,0,0,1,5.841-5.419c.266-.052.533-.091.8-.13.182-.026.364-.039.6-.065-.065.136-.11.234-.162.338A10.19,10.19,0,0,0,41.4,20.576a8.876,8.876,0,0,0,1.442,4.554c.864,1.449,1.8,2.859,2.657,4.308a16.493,16.493,0,0,1,2.28,9.83,22.664,22.664,0,0,1-6.2,14.287,21.613,21.613,0,0,1-9.772,5.906c-.9.266-1.813.474-2.722.7-.013-.032-.026-.058-.039-.091l.331-.195a7.272,7.272,0,0,0,3.781-5.588,8.283,8.283,0,0,0-.728-5.178A6.037,6.037,0,0,0,26.01,45.87c-.819.136-1.611.4-2.423.585a5.885,5.885,0,0,1-7.218-4,10.569,10.569,0,0,1-.4-5.126C16.076,36.54,16.271,35.754,16.44,34.9Z" transform="translate(0)"/>
  </g>
</svg>
