<svg xmlns="http://www.w3.org/2000/svg" viewBox="0 0 16 13.018">
  <defs>
    <style>
      .cls-1 {
        fill: #fff;
      }
    </style>
  </defs>
  <g id="icon_twitter" transform="translate(0 0.035)">
    <path id="Path_75" data-name="Path 75" class="cls-1" d="M0,11.512a6.616,6.616,0,0,0,4.836-1.358,3.306,3.306,0,0,1-2.2-.92,3.226,3.226,0,0,1-.854-1.368,3.345,3.345,0,0,0,.73.055,2.961,2.961,0,0,0,.725-.112A3.314,3.314,0,0,1,1.357,6.643a3.261,3.261,0,0,1-.729-2.1,3.262,3.262,0,0,0,1.482.409A3.279,3.279,0,0,1,.679,2.6,3.216,3.216,0,0,1,1.1.574,9.391,9.391,0,0,0,7.873,4.007c-.018-.106-.037-.2-.05-.292A3.287,3.287,0,0,1,9.627.3a3.2,3.2,0,0,1,1.547-.335A3.25,3.25,0,0,1,13.449.973a.061.061,0,0,0,.066.021A6.55,6.55,0,0,0,15.5.244l.07-.039a3.353,3.353,0,0,1-1.441,1.818,6.656,6.656,0,0,0,1.866-.51L16,1.525c-.1.136-.2.275-.3.408a6.478,6.478,0,0,1-1.3,1.248.064.064,0,0,0-.032.063,8.8,8.8,0,0,1-.041,1.32,9.473,9.473,0,0,1-.511,2.223,9.725,9.725,0,0,1-1.388,2.583,8.883,8.883,0,0,1-5.215,3.379,9.577,9.577,0,0,1-1.355.2,9.952,9.952,0,0,1-1.671-.006A9.308,9.308,0,0,1,1.274,12.2a9.218,9.218,0,0,1-1.245-.664A.2.2,0,0,1,0,11.512Z" transform="translate(0 0)"/>
  </g>
</svg>
