<svg xmlns="http://www.w3.org/2000/svg" viewBox="0 0 190.271 84.694">
  <defs>
    <style>
      .cls-1 {
        fill: #e3e4e5;
      }

      .cls-2 {
        fill: #100f10;
      }

      .cls-3 {
        fill: #9d9ea0;
      }
    </style>
  </defs>
  <g id="logo_black" transform="translate(-0.013)">
    <path id="Path_1" data-name="Path 1" class="cls-1" d="M68.664,60.36c-.031-.031-.092-.092-.153-.031s0,.122.031.153a8.027,8.027,0,0,0,.643,1.377,11.017,11.017,0,0,1,.49,4.989A9.818,9.818,0,0,1,62.3,75.573a19.038,19.038,0,0,1-7.775.337,25.325,25.325,0,0,1-3.306-.673c-.337-.092-.49.061-.612.337-.122.306.031.459.275.551.643.275,1.316.52,1.99.735a24.884,24.884,0,0,0,4.469.8,18.064,18.064,0,0,0,6.275-.4,9.619,9.619,0,0,0,6.244-4.5,10.973,10.973,0,0,0,.949-9.121A7.047,7.047,0,0,0,68.664,60.36ZM81.4,53.381a5.9,5.9,0,0,1-.031-.735,2.953,2.953,0,0,1,2.173-3.122,3.738,3.738,0,0,1,1.286-.184,10.44,10.44,0,0,1,4.1.7c.49.184.979.4,1.469.612a1.082,1.082,0,0,0,.306-.582c.582-1.5,1.163-3,1.745-4.53.52-1.347.52-1.347-.888-1.867-.551-.214-.551-.214-.8.367-.582,1.469-1.133,2.969-1.714,4.438-.245.643-.306.643-.888.184a.34.34,0,0,0,.459-.214c.735-1.928,1.469-3.826,2.2-5.754.092-.275.061-.4-.214-.52-.153-.061-.306-.153-.459-.214a17.838,17.838,0,0,0-11.2-.979,9.162,9.162,0,0,0-7.009,6.244,10.042,10.042,0,0,0-.551,3.153,9.469,9.469,0,0,0,2.081,6.765,20.889,20.889,0,0,0,2.387,2.265c.184.612.7.888,1.163,1.255A28.074,28.074,0,0,0,82.9,64.033c.061.031.153,0,.214,0a1.425,1.425,0,0,1,.4.765A2.876,2.876,0,0,1,82.1,67.982a4.86,4.86,0,0,1-2.234.582,12.746,12.746,0,0,1-5.816-1.316c-.153-.092-.306-.245-.551-.184-.245.643-.49,1.255-.7,1.9-.551,1.5-1.1,3.03-1.683,4.53-.122.337-.122.551.275.673.306.092.582.245.888.337a22.582,22.582,0,0,0,9.978,1.133,11.566,11.566,0,0,0,5.693-2.143A10.2,10.2,0,0,0,91.9,65.564a12.377,12.377,0,0,0-.459-3.826c.367.184.367.551.459.857a11.4,11.4,0,0,1,.153,5.081,9.488,9.488,0,0,1-5.387,7.162,15.574,15.574,0,0,1-8.234,1.224,24.214,24.214,0,0,1-4.683-.826c-.4-.122-.52.031-.643.337-.153.4.092.459.337.582a15.361,15.361,0,0,0,1.99.7,28.657,28.657,0,0,0,4.53.8,17.224,17.224,0,0,0,6.611-.52A9.6,9.6,0,0,0,93,71.471a12.063,12.063,0,0,0,.826-5.112,8.822,8.822,0,0,0-2.694-6.091c-.153-.153-.275-.367-.551-.306a13.684,13.684,0,0,0-4.5-3.979c-1.071-.612-2.2-1.163-3.275-1.775A3.249,3.249,0,0,1,81.4,53.381ZM184.977,48.7a2.263,2.263,0,0,0,.306-.673c.612-1.622,1.255-3.245,1.867-4.867.337-.888.337-.888-.52-1.255-.275-.122-.551-.214-.826-.337a18.651,18.651,0,0,0-6.336-1.1,14.6,14.6,0,0,0-4.438.551,9.408,9.408,0,0,0-6.52,5.846,11.366,11.366,0,0,0-.582,5.724,8.826,8.826,0,0,0,2.6,5.234c.551.551,1.194,1.01,1.745,1.561.153.551.612.8.979,1.133a19.313,19.313,0,0,0,4.285,2.663,12.464,12.464,0,0,0,2.051.949,1.308,1.308,0,0,1,.337.643,2.883,2.883,0,0,1-1.163,3.091,4.539,4.539,0,0,1-2.418.7,12.718,12.718,0,0,1-5.816-1.286c-.153-.092-.306-.245-.551-.184l-.184.459c-.7,1.867-1.377,3.7-2.081,5.571-.337.918-.367.949.551,1.286a22,22,0,0,0,11.325,1.163,10.154,10.154,0,0,0,5.969-3.061c2.571-2.816,3.153-6.183,2.479-9.856.306.092.337.4.367.643a11.694,11.694,0,0,1,0,4.377,9.549,9.549,0,0,1-3.551,6.061,12.175,12.175,0,0,1-7.132,2.387,24.239,24.239,0,0,1-7.56-.857c-.52-.122-.52-.092-.7.306-.184.429.122.49.4.612a5.1,5.1,0,0,0,.612.245,23.1,23.1,0,0,0,9.458,1.286,12.148,12.148,0,0,0,5.938-1.9,9.451,9.451,0,0,0,3.734-4.836,11.652,11.652,0,0,0,.643-4.469,8.725,8.725,0,0,0-1.9-5.357,5.957,5.957,0,0,0-1.653-1.622,14.174,14.174,0,0,0-4.683-3.826c-1.01-.551-2.02-1.071-3.03-1.622a2.914,2.914,0,0,1-1.071-.735c0-.306-.031-.582-.031-.888a2.79,2.79,0,0,1,1.775-2.785,4.125,4.125,0,0,1,1.5-.337,10.834,10.834,0,0,1,5.265,1.133c.551.245.551.245.765-.306.673-1.745,1.316-3.459,1.99-5.2.245-.673.245-.673-.4-.979a1.494,1.494,0,0,0-.214-.092c-1.255-.52-1.071-.551-1.5.643-.551,1.377-1.071,2.785-1.592,4.193-.061.122-.061.306-.275.306C185.038,49,185.007,48.851,184.977,48.7ZM53.635,59.534c-.031.367.275.49.459.673a17.646,17.646,0,0,0,4.346,2.816,13.872,13.872,0,0,0,2.265,1.041,1.53,1.53,0,0,1,.429,1.071A2.93,2.93,0,0,1,58.9,68.318a7.622,7.622,0,0,1-3.428.092,12.714,12.714,0,0,1-4.04-1.286c-.275-.153-.367-.092-.459.184-.184.551-.4,1.1-.612,1.653-.551,1.5-1.133,3.03-1.714,4.53-.122.337-.092.551.275.673.429.153.857.337,1.286.49a24.278,24.278,0,0,0,6.765,1.133,15.36,15.36,0,0,0,4.867-.551,9.742,9.742,0,0,0,6.856-6.091,12.485,12.485,0,0,0,.7-4.622,8.91,8.91,0,0,0-3.459-6.918,17.2,17.2,0,0,0-2.785-1.9c-1.01-.551-2.02-1.071-3.03-1.622a3.313,3.313,0,0,1-1.1-.735c0-.122-.031-.245-.031-.367a2.941,2.941,0,0,1,2.02-3.459,4.981,4.981,0,0,1,.918-.214,9.134,9.134,0,0,1,5.234,1.041c.612.367.888.245,1.133-.429l1.745-4.591c.429-1.163.429-1.163-.673-1.622-.8-.337-.8-.337-1.133.49-.551,1.408-1.071,2.847-1.622,4.255-.214.551-.245.582-.8.337a13.59,13.59,0,0,0-1.867-.673,9.2,9.2,0,0,0-3.765-.367,3.02,3.02,0,0,0-2.816,3.765,2.168,2.168,0,0,1,.031.429,1.165,1.165,0,0,1-.275-.4,3.049,3.049,0,0,1,2.234-4.071,8.627,8.627,0,0,1,3.949.245A12.461,12.461,0,0,1,66,48.729c.092-.214.184-.367.245-.551.612-1.561,1.194-3.153,1.806-4.714.459-1.194.459-1.194-.735-1.683a18.32,18.32,0,0,0-7.9-1.255,13.614,13.614,0,0,0-4.775,1.01,9.216,9.216,0,0,0-4.53,4.224,9.8,9.8,0,0,0-1.133,3.918,9.552,9.552,0,0,0,3.245,8.693C52.686,58.769,53.145,59.166,53.635,59.534Zm-34.129.337a13.278,13.278,0,0,0-3.918-3.581c-1.194-.735-2.479-1.377-3.7-2.02a4.8,4.8,0,0,1-1.347-.857,2.067,2.067,0,0,0-.061-.429,2.938,2.938,0,0,1,1.5-3.153,4.287,4.287,0,0,1,1.837-.459,11.288,11.288,0,0,1,5.112,1.071c.582.245.612.245.826-.367.582-1.5,1.163-3,1.745-4.53.52-1.377.52-1.377-.857-1.9-.551-.214-.582-.214-.8.367L18.19,48.331c-.061.153-.122.337-.184.459a.215.215,0,0,1-.306.122c-.092-.061-.061-.184-.092-.275.673-1.745,1.316-3.459,1.99-5.2.459-1.194.459-1.194-.735-1.683A18.881,18.881,0,0,0,8.7,40.74a11.079,11.079,0,0,0-4.316,1.745,8.789,8.789,0,0,0-2.632,2.969,11.07,11.07,0,0,0-1.316,6A9.255,9.255,0,0,0,3.07,57.728c.52.52,1.1.979,1.622,1.469a1,1,0,0,0,.4.582,14.83,14.83,0,0,0,2.571,2.051c1.469.949,3.122,1.592,4.683,2.449a1.53,1.53,0,0,1,.306.949,2.988,2.988,0,0,1-2.265,3.122,7.676,7.676,0,0,1-3.336.092,12.473,12.473,0,0,1-4.04-1.286c-.337-.184-.459-.092-.582.245-.275.8-.582,1.592-.918,2.357-.49,1.1-.888,2.265-1.316,3.4-.306.765-.275.826.52,1.163a1.492,1.492,0,0,0,.337.122,20.386,20.386,0,0,0,5.2,1.194,19.02,19.02,0,0,0,6.581-.245A9.855,9.855,0,0,0,19.66,70.4a11.538,11.538,0,0,0,1.1-7.285,11.047,11.047,0,0,1-.367-1.683,3.339,3.339,0,0,1,.459,1.071,10.636,10.636,0,0,1,.306,4.285,9.618,9.618,0,0,1-6.091,8.295,16.929,16.929,0,0,1-8.723.826A24.768,24.768,0,0,1,2.7,75.175c-.306-.092-.459-.031-.551.275-.153.4-.122.551.306.735a15.36,15.36,0,0,0,1.99.7,23.718,23.718,0,0,0,4.408.765,18,18,0,0,0,6.887-.551,9.492,9.492,0,0,0,5.571-4.193,11.328,11.328,0,0,0,1.53-7.254,8.881,8.881,0,0,0-2.663-5.418C20,60.085,19.843,59.84,19.506,59.87ZM33.25,54.789c-.122-1.439-.031-2.877-.061-4.316,0-.735,0-.735.735-.735h13.07c.735,0,.735,0,.735-.735V44.168c0-1.163.184-1.071-1.133-1.071-.52,0-.52.031-.52.551v3.673c0,.8,0,.8-.8.8H31.9c-.214,0-.306.122-.306.337v6.305c-.153.061-.306.092-.367-.122a2.8,2.8,0,0,1-.031-.52V48.545c0-.826-.092-.765.8-.765h13.07c.7,0,.673.092.673-.673V41.75c0-.765.031-.673-.673-.673h-19.9c-.643,0-.643,0-.643.612v33c0,.612,0,.612.612.612H45.126c.643,0,.643.061.643-.612V69.114c0-.52,0-.52-.52-.52H39.678c-2.143,0-4.255-.031-6.4-.031,0-1.347-.031-2.694-.031-4.04,0-1.071-.092-.979,1.01-.979H45.8c.826,0,.826,0,.826-.857V57.85c0-1.133.122-1.01-1.01-1.01-.612,0-.643,0-.643.673v3.734c0,.673,0,.673-.7.7H32.24c-.612,0-.612,0-.612.612v3.459a18.036,18.036,0,0,1-.061,2.571c-.429,0-.275-.337-.275-.551V62.472c0-.979-.122-.888.918-.888H44.024c.673,0,.643.061.643-.643V55.953c0-1.041,0-1.041-1.01-1.041C40.075,54.789,36.647,54.789,33.25,54.789Zm28.4-32.231v5.632c0,.52-.031.551-.551.673a7.914,7.914,0,0,1-2.234.214,5.039,5.039,0,0,1-3.336-1.224,18.952,18.952,0,0,1-1.194-2.816A18.862,18.862,0,0,1,53.758,18a12.1,12.1,0,0,1,1.5-5.02,7.574,7.574,0,0,1,5.142-3.8,12.521,12.521,0,0,1,7.683.826c.551.245.551.245.8-.306.612-1.561,1.224-3.122,1.837-4.714.459-1.224.459-1.224-.765-1.653-.7-.275-.735-.245-1.01.429-.551,1.439-1.1,2.877-1.683,4.316-.214.52-.214.52-.735.306a13.246,13.246,0,0,0-6.887-.949,7.672,7.672,0,0,0-6.183,4.316,12.758,12.758,0,0,0-1.316,5.081,18.045,18.045,0,0,0,.888,7.438,1.845,1.845,0,0,1,.184.7,2.614,2.614,0,0,1-.582-1.163,17.825,17.825,0,0,1-.826-7.805,13.342,13.342,0,0,1,.949-3.918A7.912,7.912,0,0,1,58.41,7.224a12.507,12.507,0,0,1,5.112.031,10.493,10.493,0,0,1,3.122,1.071c.122-.245.214-.49.306-.7.551-1.439,1.133-2.877,1.683-4.316.153-.459.612-.949.4-1.347-.245-.429-.857-.52-1.347-.673A19.855,19.855,0,0,0,60.185,0a18.447,18.447,0,0,0-6.55,1.133,14.935,14.935,0,0,0-9.091,9.917,23.339,23.339,0,0,0-.765,10.376,16.785,16.785,0,0,0,6.489,11.815c-.031.184.092.275.184.367A13.356,13.356,0,0,0,56.084,37.1a14.51,14.51,0,0,0,4.591.673,25.961,25.961,0,0,0,4.622-.184,20.455,20.455,0,0,0,5.387-1.347.871.871,0,0,0,.643-.918c-.031-6.091,0-12.182,0-18.273,0-.735,0-.735-.735-.735h-.214c-.643,0-.643,0-.673.643V28.772c0,1.622-.031,3.245,0,4.836a.946.946,0,0,1-.7,1.041c-.612.214-1.224.459-1.867.643a27.547,27.547,0,0,1-8.356.857,15.127,15.127,0,0,1-5.418-1.194c-.275-.122-.582-.153-.7-.459a1.1,1.1,0,0,1,.337.122,17.761,17.761,0,0,0,6.152,1.224,29.058,29.058,0,0,0,4.9-.337,18.6,18.6,0,0,0,4.806-1.286.739.739,0,0,0,.52-.765c-.031-6.183,0-12.4,0-18.579,0-.52,0-.52-.52-.52H58.288c-.857,0-.735,0-.735.765v4.928c0,.275.122.4.4.367h3.367c.184,0,.429-.061.429.245a3.673,3.673,0,0,1-1.163.061c-1.1.031-1.071-.214-1.041,1.133,0,.52.031.52.551.551C60.553,22.5,61.1,22.406,61.655,22.559ZM113.72,73.8a1.088,1.088,0,0,0,.122.275,10.856,10.856,0,0,0,2.541,2.173,14.056,14.056,0,0,0,1.837.826,7.291,7.291,0,0,0,1.775.49,19.653,19.653,0,0,0,4.836.061,11.249,11.249,0,0,0,5.326-2.112,13.178,13.178,0,0,0,4.53-6.367,21.435,21.435,0,0,0,1.255-5.877,30.152,30.152,0,0,0-.673-10.346,15.511,15.511,0,0,0-3.428-6.734c-.275-.306-.49-.673-.949-.8-.275-.306-.551-.643-.8-.949a11.039,11.039,0,0,0-5.418-3.489,14.525,14.525,0,0,0-5.387-.429,11.5,11.5,0,0,0-6.8,2.938,13.934,13.934,0,0,0-3.765,6.183,29,29,0,0,0-.122,16.467A13.877,13.877,0,0,0,113.72,73.8Zm30.67-38.536c.122.031.245.092.245.214s-.122.122-.214.122h-7.193a1.751,1.751,0,0,0-.857.092c.153.306.337.582.459.857a1.042,1.042,0,0,0,1.194.7c2.51-.031,5.05,0,7.56-.031a1.108,1.108,0,0,0,.7-.092c.031-.275-.153-.429-.245-.612-2.112-3.581-4.193-7.162-6.305-10.774l-3.581-6.061a.873.873,0,0,1,0-1.071c.4-.551.735-1.163,1.1-1.745,2.847-4.561,5.693-9.152,8.509-13.713.122-.184.337-.367.245-.673-.582-.092-1.163,0-1.745-.061A1.074,1.074,0,0,0,143.2,3c-1.837,2.969-3.673,5.938-5.51,8.938-1.041,1.653-2.051,3.336-3.091,4.989-.122.214-.184.551-.551.49-.275-.367.061-.582.214-.826,3.183-5.142,6.367-10.254,9.55-15.4a1.636,1.636,0,0,0,.337-.735h-8.632a.649.649,0,0,0-.582.367c-.4.7-.826,1.377-1.255,2.081l-5.969,9.825c-.245-.214-.153-.49-.153-.765V3.091c0-.643,0-.643-.643-.673H126.7c-.735,0-.735,0-.735.7V14.57a1.363,1.363,0,0,0,.092.7c-.092.214-.092.52-.429.643V1.194c0-.7.153-.735-.673-.735H117.76a.275.275,0,0,0-.306.306v33.7c0,.765-.092.7.7.7h6.826c.673,0,.643.031.643-.643V19.1a1.632,1.632,0,0,1,.061-.765.955.955,0,0,1,.337.612,2.489,2.489,0,0,0-.061.949V34.71c0,.8,0,.8-.8.8h-4.836c-.857,0-.857,0-.857.826s0,.826.857.826H126.7c.979,0,.857,0,.857-.888V22.62c0-.275-.122-.582.122-.826.153.245.275.459.429.7q3.4,6.015,6.8,12.09a1.03,1.03,0,0,0,1.071.612c2.571-.031,5.142,0,7.713,0A1.358,1.358,0,0,0,144.39,35.261Zm1.775,7.928c-.337-.551-.7-1.071-.979-1.622a.845.845,0,0,0-.918-.52c-1.745.031-3.489,0-5.2,0-.918,0-.826-.153-.826.8v32.69c0,.826,0,.7.7.7h5.724c.245,0,.367-.061.367-.337V62.839c0-2.785-.031-5.571-.031-8.356a2.657,2.657,0,0,1,.031-.979,1.811,1.811,0,0,1,.4.979,1.182,1.182,0,0,0-.092.643c0,4.346.031,8.662.031,13.009V74.9c0,.673,0,.673-.7.673H141.3c-1.163,0-1.071-.214-1.071,1.1,0,.4.153.52.52.49h5.724c.52,0,.52-.031.52-.551V58.1c0-.214-.061-.459.122-.612.061.092.122.214.184.306,1.714,2.938,3.428,5.877,5.142,8.785l4.775,8.173a.8.8,0,0,0,.8.49c1.775-.031,3.581-.031,5.357,0,.367,0,.551-.092.49-.49a2.954,2.954,0,0,1,0-.52V41.781c0-.857.092-.765-.735-.765h-5.2c-.949,0-.857-.153-.857.857V59.932c-.367.031-.4-.306-.52-.52-2.357-3.979-4.683-7.928-7.04-11.907-.8-1.377-1.592-2.724-2.418-4.1C146.777,42.944,146.716,42.944,146.165,43.189ZM90.794,14.6c-4.04,0-8.111-.031-12.152-.031-.551,0-.551.031-.582.582-.031,1.01-.031,1.01.979,1.01H90.825a1.536,1.536,0,0,1,.061.367v4.255c0,1.01.122.888-.888.888H76.806c-.643,0-.673-.061-.673.612v5.663c0,.551,0,.551.551.582H90.7c.214.031.184.184.122.337H78.734c-.643,0-.643,0-.643.643v.306c0,.643,0,.643.643.643h12.09a1.507,1.507,0,0,1,.061.735v3.367c0,.888-.061.765.8.765h20.14c.7,0,.7.061.7-.673V29.078c0-.551,0-.551-.582-.551H100.5c-.275,0-.52-.031-.8-.031,0-1.408,0-2.785-.031-4.193,0-1.01-.031-.949.979-.949h11.815c.826,0,.826,0,.826-.8V17.478c0-1.01.122-.949-.949-.949-.673,0-.673,0-.673.7v3.459c0,1.1.061.979-.979.979H98.783c-.735,0-.735,0-.735.735v4.928a3.673,3.673,0,0,1-.061,1.163c-.184.031-.275-.061-.275-.245V21.946c0-.582,0-.582.612-.582h12.3c.643,0,.643,0,.643-.643V14.876c0-.214-.092-.306-.306-.306h-10.5a2.038,2.038,0,0,1-.857-.061c0-1.224.031-2.449.031-3.673,0-1.469,0-1.469,1.5-1.469h12.427c.979,0,.888.061.888-.918V3.52c0-.979.092-.918-.888-.918-.7,0-.7,0-.7.673V7.162c0,.582-.031.582-.551.612H98.446a.325.325,0,0,0-.367.367v6.4c-.122.031-.275.061-.306-.092a3.7,3.7,0,0,1-.031-.582V8.295c0-.918-.122-.826.8-.826h13.284c.7,0,.7.061.7-.673V1.286c0-.643,0-.643-.643-.643H91.467c-.551,0-.551,0-.551.551V7.162c0,.214-.092.306-.306.306H76.561c-.306-.031-.429.061-.429.4V13.9c0,.306.122.4.4.367H90.059a5.188,5.188,0,0,1,.673.031C90.916,14.233,90.855,14.417,90.794,14.6Zm4.683,43.556h0V74.593c0,.643,0,.643.643.643h6.52c.949,0,.826.153.826-.888V41.689c0-.643,0-.643-.643-.643H96.365c-1.01,0-.918-.153-.918.888C95.477,47.352,95.477,52.739,95.477,58.156Zm76.43-22.834h14.906c.8,0,.735.092.735-.765V30.945c0-1.071.061-.888-.888-.888H158.378c-.52,0-1.041.031-1.53,0-.4-.031-.49.153-.49.52.031,1.316,0,2.632,0,3.979,0,.857-.092.765.8.765Zm-155.951,0H31.015c.673,0,.643.061.643-.643v-4.04c0-.551,0-.551-.551-.582H.988c-.49,0-.52,0-.52.551v4.316c0,.275.092.4.367.4H15.956Zm77.991,46.1h93.3c.245,0,.275-.153.275-.337s-.031-.337-.275-.337H.774c-.214,0-.275.122-.275.337,0,.184.061.337.275.337H93.947Zm.031,3.245h0c4.346-.031,8.723-.031,13.07-.031q39.761,0,79.491.031h.735c.214,0,.306-.122.306-.337a.363.363,0,0,0-.275-.4,2.8,2.8,0,0,0-.52-.031h-2.051q-39.21,0-78.389.031-52.478,0-104.988-.031H.835c-.245,0-.429.031-.459.337,0,.337.214.4.49.4H12.528Q53.3,84.679,93.977,84.663ZM158.5,75.573c.245.429.429.7.551.979a.992.992,0,0,0,1.1.643c1.653-.031,3.275,0,4.928,0,.8,0,.8,0,.8-.8V43.525c0-.275-.092-.429-.4-.4h-.367c-.979,0-.918-.061-.918.918V68.869c0,.612-.092,1.224-.061,1.837.092,1.439-.031,2.877.031,4.316.031.612,0,.643-.673.643h-3.367A9.088,9.088,0,0,0,158.5,75.573ZM105.455,60.146h0V43.985c0-.979.122-.918-.979-.918-.612,0-.612,0-.612.612V74.746c0,.826,0,.826-.857.826H98.079c-.643,0-.643,0-.673.643v.214c0,.735,0,.735.7.735h6.458c.949,0,.857.031.857-.888C105.455,70.92,105.455,65.533,105.455,60.146Zm68.41-22.9h0c2.938.031,5.877-.031,8.815.031,2.02.031,4.071.031,6.091.031.735,0,.735,0,.765-.735v-3.52c0-1.071.153-1.01-1.041-1.01-.582,0-.582.031-.612.643v2.051c0,.857,0,.888-.888.888h-27.67c-1.041,0-1.041,0-1.01,1.071v.061c-.031.337.153.49.49.49h15.059Zm-155.8,0H32.882c.735,0,.735,0,.735-.735V33.21c-.031-1.255.245-1.133-1.194-1.163-.4,0-.49.184-.49.551v2.051c0,1.041.061.979-1.01.979-9.091,0-18.151,0-27.242-.031h-.8c-.337,0-.52.122-.49.459v.429c0,.765,0,.8.765.8,1.622,0,3.214-.061,4.836-.061C11.334,37.251,14.7,37.251,18.068,37.251Zm85.551.031H113.75c.673,0,.7,0,.7-.673V31.466c0-1.071.153-1.01-1.041-1.01-.551,0-.551.031-.551.612v3.673c0,.949.061.918-.918.918H93.977c-1.194,0-1.071-.184-1.071,1.1,0,.52.031.52.551.52h10.162ZM37.045,77.195h9.7c.949,0,.918.061.918-.918V71.44c0-.888,0-.888-.888-.888h-.061c-.551.031-.582.031-.582.582v3.459c0,1.133.061,1.01-.979,1.01H27.526c-1.1,0-1.041-.245-1.041,1.133,0,.337.122.49.49.49h.52C30.648,77.195,33.862,77.195,37.045,77.195Z" transform="translate(0)"/>
    <path id="Path_2" data-name="Path 2" class="cls-2" d="M271.9,15.419a2.038,2.038,0,0,0,.857.061h10.5c.214,0,.306.092.306.306v5.846c0,.612,0,.643-.643.643h-12.3c-.612,0-.612,0-.612.582v6.305c0,.184.092.275.275.245.551,0,1.133-.031,1.683-.031.275,0,.52.031.8.031H284.2c.582,0,.582,0,.582.551v5.571c0,.735.031.673-.7.673h-20.14c-.857,0-.8.122-.8-.765V32.07a2,2,0,0,0-.061-.735,6.919,6.919,0,0,0,0-1.592c.061-.153.061-.306-.122-.337a4.938,4.938,0,0,0-.673,0H248.943c-.551,0-.551,0-.551-.582V23.163c0-.673,0-.612.673-.612h13.192c1.041,0,.888.153.888-.888V17.408a1.536,1.536,0,0,0-.061-.367,6.924,6.924,0,0,0-.031-1.592c.061-.184.122-.367-.153-.4a4.739,4.739,0,0,0-.673-.031H248.7c-.275,0-.4-.092-.4-.367V8.624c0-.337.122-.429.429-.4h14.049c.214,0,.306-.092.306-.306V1.951c0-.551,0-.551.551-.551h20.416c.643,0,.643,0,.643.643v5.51c0,.735,0,.673-.7.673H270.706c-.918,0-.8-.092-.8.826v5.571a3.7,3.7,0,0,0,.031.582c.031.153.184.122.306.092A3.459,3.459,0,0,0,271.9,15.419Z" transform="translate(-172.29 -0.971)"/>
    <path id="Path_3" data-name="Path 3" class="cls-2" d="M470.392,153V134.938c0-1.01-.092-.857.857-.857h5.2c.8,0,.735-.092.735.765v32.445a2.957,2.957,0,0,0,0,.52c.061.4-.122.49-.49.49-1.775-.031-3.581-.031-5.357,0a.8.8,0,0,1-.8-.49l-4.775-8.173c-1.714-2.938-3.428-5.877-5.142-8.785-.061-.092-.122-.214-.184-.306-.428-.8-.826-1.561-1.255-2.357-.122-.214-.153-.52-.4-.643a2.083,2.083,0,0,0-.4-.979,2.673,2.673,0,0,0-.031.979c0,2.785.031,5.571.031,8.356v12.06c0,.275-.122.337-.367.337H452.3c-.7,0-.7.122-.7-.7v-32.69c0-.949-.061-.8.826-.8h5.2a.883.883,0,0,1,.918.52c.306.551.643,1.1.979,1.622a1.034,1.034,0,0,0,.275.582c2.6,4.438,5.2,8.846,7.805,13.284a43.265,43.265,0,0,1,2.54,4.867c.061.122.061.306.276.306C470.392,154.5,470.392,153.763,470.392,153Z" transform="translate(-313.361 -93.035)"/>
    <path id="Path_4" data-name="Path 4" class="cls-2" d="M392.263,20.318a.955.955,0,0,0-.337-.612,1.662,1.662,0,0,0-.061.765V35.9c0,.643.061.643-.643.643H384.4c-.8,0-.7.031-.7-.7V2.137c0-.214.092-.306.306-.306h7.193c.857,0,.673.031.673.735V17.288c.367-.122.337-.4.429-.643a20.427,20.427,0,0,0,1.653-2.571l5.969-9.825c.428-.7.826-1.377,1.255-2.081a.616.616,0,0,1,.582-.367h8.632a1.808,1.808,0,0,1-.337.735c-3.183,5.142-6.367,10.254-9.55,15.4-.153.245-.49.459-.214.826a2.559,2.559,0,0,0,.367.7c3.336,5.693,6.673,11.356,10.009,17.049-.245,0-.49.031-.735.031h-7.713a1.048,1.048,0,0,1-1.071-.612c-2.234-4.04-4.53-8.05-6.8-12.09-.122-.245-.275-.459-.429-.7C393.365,22.216,392.875,21.236,392.263,20.318Z" transform="translate(-266.239 -1.249)"/>
    <path id="Path_5" data-name="Path 5" class="cls-2" d="M357.413,165.7a13.763,13.763,0,0,1-5.081-7.591,28.993,28.993,0,0,1,.122-16.467,13.768,13.768,0,0,1,3.765-6.183,11.318,11.318,0,0,1,6.8-2.938,14.577,14.577,0,0,1,5.387.429,10.964,10.964,0,0,1,5.418,3.489c.275.306.551.643.8.949.245.673.7,1.194,1.01,1.837.061.153.092.367.306.429a1.345,1.345,0,0,0,.214.673,20.639,20.639,0,0,1,1.377,5.234,32.086,32.086,0,0,1,0,9.06,20.369,20.369,0,0,1-1.9,6.367,11.675,11.675,0,0,1-7.009,6.183,14.1,14.1,0,0,1-7.805.122c-.765-.184-1.439-.551-2.2-.765A2.569,2.569,0,0,0,357.413,165.7Zm9.305-25.558a3.461,3.461,0,0,0-1.316-.612,3.979,3.979,0,0,0-4.316,1.837,9.365,9.365,0,0,0-1.316,3.306,27.34,27.34,0,0,0-.122,10.223,8.488,8.488,0,0,0,.979,2.969,3.681,3.681,0,0,0,1.928,2.234,3.1,3.1,0,0,0,2.357.582,4.141,4.141,0,0,0,3.214-2.2,10.57,10.57,0,0,0,1.316-3.949,30,30,0,0,0,.122-8.111,12.558,12.558,0,0,0-1.041-3.949,1.946,1.946,0,0,0-.582-.826A2.413,2.413,0,0,0,366.718,140.138Z" transform="translate(-243.693 -91.899)"/>
    <path id="Path_6" data-name="Path 6" class="cls-2" d="M160.183,20.791c0-.306-.214-.245-.429-.245h-3.367c-.275.031-.4-.092-.4-.367V15.251c0-.8-.122-.765.735-.765h10.56c.52,0,.52,0,.52.52V33.586a.739.739,0,0,1-.52.765,18.6,18.6,0,0,1-4.806,1.286,29.058,29.058,0,0,1-4.9.337,17.622,17.622,0,0,1-6.152-1.224,1.1,1.1,0,0,1-.337-.122h.031a.377.377,0,0,0-.306-.153,11.464,11.464,0,0,0-2.081-1.133c-3.918-2.969-5.846-7.04-6.489-11.815a23.791,23.791,0,0,1,.765-10.376A14.935,14.935,0,0,1,152.1,1.233,17.684,17.684,0,0,1,158.653.1a21.509,21.509,0,0,1,7.5,1.194c.49.184,1.1.275,1.347.673.214.4-.214.888-.4,1.347-.551,1.439-1.1,2.877-1.683,4.316-.092.214-.184.459-.306.7a13.025,13.025,0,0,0-8.234-1.1,7.912,7.912,0,0,0-5.663,4.867,12.446,12.446,0,0,0-.949,3.918,17.729,17.729,0,0,0,.826,7.805,2.466,2.466,0,0,0,.582,1.163v-.031c0,.122,0,.275.153.306V25.23c-.031.184.092.306.184.429a5.687,5.687,0,0,0,2.02,2.234,4.849,4.849,0,0,0,3.336,1.224A7.809,7.809,0,0,0,159.6,28.9c.551-.122.551-.122.551-.673V22.6C160.183,22.016,160.183,21.4,160.183,20.791Z" transform="translate(-98.529 -0.069)"/>
    <path id="Path_7" data-name="Path 7" class="cls-2" d="M88.654,161.479c2.143,0,4.255.031,6.4.031h5.571c.52,0,.52,0,.52.52V167.6c0,.7,0,.612-.643.612H80.512c-.582,0-.582,0-.612-.612v-33c0-.612,0-.612.643-.612h19.9c.7,0,.673-.092.673.673v5.357c0,.765.031.673-.673.673H87.368c-.888,0-.8-.061-.8.765v5.571a1.493,1.493,0,0,0,.031.52c.031.184.214.153.367.122a7.743,7.743,0,0,0,1.683.031c3.428,0,6.856,0,10.284.031,1.01,0,1.01,0,1.01,1.041v4.989c0,.7.061.643-.643.643H87.491c-1.041,0-.918-.092-.918.888v5.571c0,.184-.184.52.275.551A17.8,17.8,0,0,0,88.654,161.479Z" transform="translate(-55.435 -92.977)"/>
    <path id="Path_8" data-name="Path 8" class="cls-2" d="M10.538,145.186a4.8,4.8,0,0,0,1.347.857c1.255.673,2.51,1.286,3.7,2.02a13.278,13.278,0,0,1,3.918,3.581,6.418,6.418,0,0,0,.673,1.286c.061.092.031.306.214.306v-.031a10.3,10.3,0,0,0,.367,1.683,11.966,11.966,0,0,1-1.1,7.285,9.855,9.855,0,0,1-6.826,4.989,19.019,19.019,0,0,1-6.581.245,21.763,21.763,0,0,1-5.2-1.194c-.122-.031-.214-.092-.337-.122-.8-.337-.826-.4-.52-1.163.429-1.133.857-2.265,1.316-3.4.337-.765.643-1.561.918-2.357.122-.306.214-.429.582-.245a12.474,12.474,0,0,0,4.04,1.286,8.162,8.162,0,0,0,3.336-.092A2.988,2.988,0,0,0,12.65,157a1.53,1.53,0,0,0-.306-.949,3.42,3.42,0,0,0-1.163-1.469,11.676,11.676,0,0,0-1.867-1.133,28.487,28.487,0,0,1-4.346-2.387A1.951,1.951,0,0,0,4.753,151c-.551-.49-1.133-.949-1.622-1.469A9.255,9.255,0,0,1,.5,143.257a11.352,11.352,0,0,1,1.316-6,8.218,8.218,0,0,1,2.632-2.969,11.364,11.364,0,0,1,4.316-1.745,18.562,18.562,0,0,1,10.162,1.01c1.194.459,1.194.49.735,1.683-.673,1.745-1.316,3.459-1.99,5.2a.847.847,0,0,0-.275.031h-.122c-.061-.153-.184-.153-.306-.153H17a.392.392,0,0,0-.459-.153h.031a8.486,8.486,0,0,0-5.6-.857,3.012,3.012,0,0,0-1.53.826,2.853,2.853,0,0,0-.4,3.642A3.06,3.06,0,0,0,10.538,145.186Z" transform="translate(0 -91.774)"/>
    <path id="Path_9" data-name="Path 9" class="cls-2" d="M169.13,145.371a3.03,3.03,0,0,0,1.1.735c1.01.551,2.051,1.071,3.03,1.622a17.2,17.2,0,0,1,2.785,1.9,9.1,9.1,0,0,1,3.459,6.918,11.886,11.886,0,0,1-.7,4.622,9.685,9.685,0,0,1-6.856,6.091,15.36,15.36,0,0,1-4.867.551,24.093,24.093,0,0,1-6.765-1.133c-.429-.153-.857-.337-1.286-.49-.367-.122-.4-.337-.275-.673.582-1.5,1.133-3.03,1.714-4.53.214-.551.429-1.1.612-1.653.092-.275.214-.337.459-.184a12.474,12.474,0,0,0,4.04,1.286,8.1,8.1,0,0,0,3.428-.092,2.95,2.95,0,0,0,2.234-3.183,1.585,1.585,0,0,0-.429-1.071c0-.306-.245-.459-.4-.673a8.108,8.108,0,0,0-2.694-1.837,34.578,34.578,0,0,1-3.642-1.928c-.092-.061-.214-.153-.337-.092-.459-.4-.949-.765-1.408-1.163a9.655,9.655,0,0,1-3.245-8.693,10.324,10.324,0,0,1,1.133-3.918,9.216,9.216,0,0,1,4.53-4.224,14.333,14.333,0,0,1,4.775-1.01,18.32,18.32,0,0,1,7.9,1.255c1.194.49,1.194.49.735,1.683-.612,1.561-1.194,3.153-1.806,4.714-.061.184-.153.337-.245.551a12.46,12.46,0,0,0-2.694-1.01,9.039,9.039,0,0,0-3.949-.245,3,3,0,0,0-2.234,4.071,1.309,1.309,0,0,0,.275.4A4.242,4.242,0,0,0,169.13,145.371Z" transform="translate(-110.108 -91.959)"/>
    <path id="Path_10" data-name="Path 10" class="cls-2" d="M552.379,151.108c-.582-.52-1.194-1.01-1.745-1.561a8.825,8.825,0,0,1-2.6-5.234,11.435,11.435,0,0,1,.582-5.724,9.35,9.35,0,0,1,6.52-5.846,14.482,14.482,0,0,1,4.438-.551,18.652,18.652,0,0,1,6.336,1.1c.275.092.551.214.826.337.857.367.857.4.52,1.255-.612,1.622-1.255,3.245-1.867,4.867a2.193,2.193,0,0,1-.306.673c-.275-.061-.49-.275-.765-.306-.092,0-.184-.031-.276-.031h.031a.357.357,0,0,0-.459-.153h.031c-.214-.367-.643-.275-.949-.367a9.091,9.091,0,0,0-3.245-.49,4.562,4.562,0,0,0-2.081.612,2.807,2.807,0,0,0-.918,3.826,10.766,10.766,0,0,0,2.694,2.3c1.01.551,2.051,1.071,3.03,1.622a14.562,14.562,0,0,1,4.683,3.826,16.158,16.158,0,0,1,1.377,3.061c.673,3.673.092,7.009-2.479,9.856a10.155,10.155,0,0,1-5.969,3.061,21.966,21.966,0,0,1-11.325-1.163c-.918-.337-.888-.367-.551-1.286.7-1.867,1.377-3.7,2.081-5.571l.184-.459c.245-.061.4.122.551.184a12.339,12.339,0,0,0,5.816,1.286,4.387,4.387,0,0,0,2.418-.7,2.853,2.853,0,0,0,1.163-3.091,1.308,1.308,0,0,0-.337-.643c0-.306-.245-.459-.4-.673a6.873,6.873,0,0,0-2.234-1.622,34.368,34.368,0,0,1-4.438-2.387A.584.584,0,0,1,552.379,151.108Z" transform="translate(-380.044 -91.727)"/>
    <path id="Path_11" data-name="Path 11" class="cls-2" d="M252.178,153.472a14.71,14.71,0,0,1,.459,3.826,10.064,10.064,0,0,1-3.949,7.928A11.385,11.385,0,0,1,243,167.369a23.036,23.036,0,0,1-9.978-1.133c-.306-.092-.582-.245-.888-.337-.367-.122-.4-.306-.275-.673.582-1.5,1.133-3.03,1.683-4.53.245-.643.49-1.286.7-1.9.245-.061.4.092.551.184a12.746,12.746,0,0,0,5.816,1.316,4.35,4.35,0,0,0,2.234-.582,2.918,2.918,0,0,0,1.408-3.183,1.425,1.425,0,0,0-.4-.765c0-.275-.214-.429-.367-.612a6.013,6.013,0,0,0-1.867-1.408c-1.653-.857-3.336-1.592-4.9-2.6-.031-.031-.092,0-.153-.031a18.523,18.523,0,0,1-2.387-2.265,9.513,9.513,0,0,1-2.081-6.765,12.164,12.164,0,0,1,.551-3.153,9.262,9.262,0,0,1,7.009-6.244,17.838,17.838,0,0,1,11.2.979c.153.061.306.153.459.214.245.092.306.245.214.52-.735,1.9-1.469,3.826-2.2,5.754-.092.245-.214.306-.459.214h.031a10.758,10.758,0,0,0-5.418-1.316,4.187,4.187,0,0,0-1.622.367,2.9,2.9,0,0,0-1.683,3.367c.061.245,0,.551.337.673v-.031c-.031.153.061.245.153.337a3.163,3.163,0,0,0,1.469,1.286,4.747,4.747,0,0,0,1.316.888c1.071.612,2.2,1.163,3.275,1.775a13.684,13.684,0,0,1,4.5,3.979,4.055,4.055,0,0,0,.643,1.316c.184.184.153.4.306.459Z" transform="translate(-160.833 -91.735)"/>
    <path id="Path_12" data-name="Path 12" class="cls-2" d="M311.9,151.21V134.988c0-1.041-.092-.857.918-.888h6.458c.612,0,.643,0,.643.643V167.4c0,1.01.092.857-.826.888h-6.52c-.612,0-.643,0-.643-.643-.031-5.479-.031-10.958-.031-16.437Z" transform="translate(-216.418 -93.054)"/>
    <path id="Path_13" data-name="Path 13" class="cls-2" d="M526.343,103.447H511.59c-.888,0-.8.092-.8-.765V98.7c0-.367.092-.52.49-.52.52.031,1.041,0,1.53,0H541.1c.979,0,.888-.153.888.888v3.612c0,.857.031.765-.735.765Z" transform="translate(-354.436 -68.124)"/>
    <path id="Path_14" data-name="Path 14" class="cls-2" d="M16.988,103.465H1.867c-.275.031-.367-.122-.367-.4V98.751c0-.52,0-.551.52-.551H32.139c.551,0,.551,0,.551.582v4.04c0,.7.031.643-.643.643H16.988Z" transform="translate(-1.032 -68.142)"/>
    <path id="Path_15" data-name="Path 15" class="cls-2" d="M94.979,264.473H1.775c-.245,0-.275-.122-.275-.337,0-.184.061-.337.275-.337H188.243c.245,0,.275.153.275.337s-.031.337-.275.337H94.979Z" transform="translate(-1.032 -183.054)"/>
    <path id="Path_16" data-name="Path 16" class="cls-3" d="M94.94,274.919H1.89c-.275,0-.49-.061-.49-.4,0-.306.214-.367.459-.337h.52q52.478,0,104.988.031,39.21,0,78.389-.031h2.051a2.973,2.973,0,0,1,.52.031c.214.031.245.214.275.4,0,.214-.092.337-.306.337h-.735q-39.761,0-79.491-.031Z" transform="translate(-0.963 -190.255)"/>
    <path id="Path_17" data-name="Path 17" class="cls-3" d="M371.5,176.844a3.24,3.24,0,0,1,1.194.735,4.049,4.049,0,0,0,1.286.7,13.785,13.785,0,0,0,7.775.643,11.09,11.09,0,0,0,6.979-4.377,16.535,16.535,0,0,0,2.724-5.969,31.223,31.223,0,0,0,.7-9.825,20.768,20.768,0,0,0-1.255-6.091,5.463,5.463,0,0,0-.918-1.9c-.245-.031-.245-.275-.306-.429-.306-.643-.765-1.194-1.01-1.837a2.183,2.183,0,0,1,.949.8,15.68,15.68,0,0,1,3.428,6.734,30.153,30.153,0,0,1,.673,10.346,23.954,23.954,0,0,1-1.255,5.877,13.178,13.178,0,0,1-4.53,6.367,12.056,12.056,0,0,1-5.326,2.112,19.672,19.672,0,0,1-4.836-.061,7.291,7.291,0,0,1-1.775-.49q-.918-.367-1.837-.826a10.18,10.18,0,0,1-2.541-2.173A1.144,1.144,0,0,1,371.5,176.844Z" transform="translate(-257.78 -103.046)"/>
    <path id="Path_18" data-name="Path 18" class="cls-3" d="M448.176,40.928c-3.336-5.693-6.673-11.356-10.009-17.049a2.559,2.559,0,0,1-.367-.7c.367.061.429-.306.551-.49,1.041-1.653,2.081-3.336,3.091-4.989,1.836-2.969,3.7-5.938,5.51-8.938a1.008,1.008,0,0,1,1.071-.582c.582.061,1.163-.031,1.745.061.122.306-.122.49-.245.673-2.847,4.561-5.663,9.152-8.509,13.713-.367.582-.7,1.194-1.1,1.745a.873.873,0,0,0,0,1.071l3.581,6.061c2.112,3.581,4.224,7.162,6.305,10.774.092.184.306.337.245.612a1.108,1.108,0,0,1-.7.092c-2.51,0-5.05-.031-7.56.031a1.1,1.1,0,0,1-1.194-.7,7.968,7.968,0,0,0-.459-.857,2.215,2.215,0,0,1,.857-.092h7.193c.092,0,.214,0,.214-.122A.243.243,0,0,0,448.176,40.928Z" transform="translate(-303.787 -5.667)"/>
    <path id="Path_19" data-name="Path 19" class="cls-3" d="M517.8,173.137h4.959c.673,0,.7,0,.673-.643-.061-1.439.061-2.877-.031-4.316-.031-.582.061-1.224.061-1.837V141.518c0-.979-.031-.888.918-.918h.367a.356.356,0,0,1,.4.4v32.874c0,.8,0,.8-.8.8-1.653,0-3.275-.031-4.928,0a1.026,1.026,0,0,1-1.1-.643C518.2,173.841,518.045,173.565,517.8,173.137Z" transform="translate(-359.3 -97.564)"/>
    <path id="Path_20" data-name="Path 20" class="cls-3" d="M326.319,157.847v16.161c0,.918.092.888-.857.888H319c-.7,0-.7,0-.7-.735v-.214c0-.643,0-.643.673-.643H323.9c.857,0,.857,0,.857-.826V141.41c0-.612.031-.612.612-.612,1.1,0,.979-.061.979.918-.031,5.357-.031,10.744-.031,16.131Z" transform="translate(-220.864 -97.701)"/>
    <path id="Path_21" data-name="Path 21" class="cls-3" d="M173.49,34.86a5.282,5.282,0,0,1-2.02-2.234c.092-.214-.031-.306-.184-.429v.031c-.031-.122-.031-.245-.153-.306v.031a1.845,1.845,0,0,0-.184-.7,18.045,18.045,0,0,1-.888-7.438,12.758,12.758,0,0,1,1.316-5.081,7.737,7.737,0,0,1,6.183-4.316,13.567,13.567,0,0,1,6.887.949c.52.214.52.214.735-.306.582-1.439,1.133-2.877,1.683-4.316.275-.7.275-.7,1.01-.429,1.194.459,1.224.459.765,1.653-.612,1.561-1.224,3.153-1.837,4.714-.214.551-.214.551-.8.306a12.748,12.748,0,0,0-7.683-.826,7.6,7.6,0,0,0-5.142,3.8,12.572,12.572,0,0,0-1.5,5.02,18.81,18.81,0,0,0,.582,7.04A21.543,21.543,0,0,0,173.49,34.86Z" transform="translate(-117.957 -7.037)"/>
    <path id="Path_22" data-name="Path 22" class="cls-3" d="M164.089,70.4a17.049,17.049,0,0,1,2.081,1.133c-.031.275.245.031.306.153h-.031c.153.306.459.367.7.459a16.553,16.553,0,0,0,5.418,1.194,28.442,28.442,0,0,0,8.356-.857c.643-.184,1.255-.429,1.867-.643a.927.927,0,0,0,.7-1.041c-.031-1.622,0-3.245,0-4.836V54.143c0-.643,0-.643.673-.643h.214c.7,0,.735,0,.735.735V72.508a.842.842,0,0,1-.643.918,20.757,20.757,0,0,1-5.387,1.347,29.051,29.051,0,0,1-4.622.184,15.584,15.584,0,0,1-4.591-.673,13.06,13.06,0,0,1-5.632-3.489C164.181,70.641,164.058,70.549,164.089,70.4Z" transform="translate(-113.852 -37.124)"/>
    <path id="Path_23" data-name="Path 23" class="cls-3" d="M532.7,109.9H517.641c-.337,0-.49-.122-.49-.49v-.061c-.061-1.071-.061-1.071,1.01-1.071h27.67c.888,0,.888,0,.888-.888v-2.051c0-.612,0-.643.612-.643,1.163,0,1.041-.061,1.041,1.01v3.52c0,.735,0,.735-.765.735-2.02-.031-4.071,0-6.091-.031-2.938-.061-5.877-.031-8.815-.031Z" transform="translate(-358.835 -72.651)"/>
    <path id="Path_24" data-name="Path 24" class="cls-3" d="M23.472,109.973H13.4c-1.622,0-3.214.061-4.836.061-.765,0-.765,0-.765-.8v-.429c0-.337.184-.49.49-.459h.8c9.091,0,18.151,0,27.242.031,1.071,0,1.01.061,1.01-.979v-2.051c0-.337.092-.551.49-.551,1.439.031,1.163-.122,1.194,1.163v3.306c0,.735,0,.735-.735.735H30.879c-2.479-.031-4.959-.031-7.407-.031Z" transform="translate(-5.404 -72.722)"/>
    <path id="Path_25" data-name="Path 25" class="cls-3" d="M24.769,196.88a5.155,5.155,0,0,1-.673-1.286c.337-.031.459.214.643.4A8.962,8.962,0,0,1,27.4,201.41a11.369,11.369,0,0,1-1.53,7.254,9.492,9.492,0,0,1-5.571,4.193,17.464,17.464,0,0,1-6.887.551,27.11,27.11,0,0,1-4.408-.765,15.359,15.359,0,0,1-1.99-.7c-.429-.184-.459-.337-.306-.735a.385.385,0,0,1,.551-.275,21.339,21.339,0,0,0,3.642.735,16.612,16.612,0,0,0,8.723-.826,9.656,9.656,0,0,0,6.091-8.295,10.154,10.154,0,0,0-.306-4.285,3.339,3.339,0,0,0-.459-1.071v.031C25.013,197.033,24.891,196.971,24.769,196.88Z" transform="translate(-4.589 -135.724)"/>
    <path id="Path_26" data-name="Path 26" class="cls-3" d="M572.191,197.661a13.049,13.049,0,0,0-1.377-3.061,5.564,5.564,0,0,1,1.653,1.622,8.479,8.479,0,0,1,1.9,5.357,11.651,11.651,0,0,1-.643,4.469,9.451,9.451,0,0,1-3.734,4.836,11.841,11.841,0,0,1-5.938,1.9,23.1,23.1,0,0,1-9.458-1.286,5.1,5.1,0,0,1-.612-.245c-.245-.122-.582-.184-.4-.612s.214-.459.7-.306a24.238,24.238,0,0,0,7.56.857,12.246,12.246,0,0,0,7.132-2.387,9.549,9.549,0,0,0,3.551-6.061,11.693,11.693,0,0,0,0-4.377C572.527,198.059,572.5,197.753,572.191,197.661Z" transform="translate(-384.092 -135.036)"/>
    <path id="Path_27" data-name="Path 27" class="cls-3" d="M256.585,197.292a4.055,4.055,0,0,1-.643-1.316c.275-.061.4.153.551.306a8.764,8.764,0,0,1,2.694,6.091,12.218,12.218,0,0,1-.826,5.112,9.6,9.6,0,0,1-6.428,5.663,17.224,17.224,0,0,1-6.611.52,28.055,28.055,0,0,1-4.53-.8,15.358,15.358,0,0,1-1.99-.7c-.245-.122-.52-.184-.337-.582.122-.306.245-.459.643-.337a22.091,22.091,0,0,0,4.683.826,15.485,15.485,0,0,0,8.234-1.224,9.488,9.488,0,0,0,5.387-7.162,10.977,10.977,0,0,0-.153-5.081c-.092-.306-.092-.7-.459-.857h.031C256.829,197.537,256.8,197.353,256.585,197.292Z" transform="translate(-165.423 -135.983)"/>
    <path id="Path_28" data-name="Path 28" class="cls-3" d="M183.261,197.2a7.13,7.13,0,0,1,2.143,3.275,10.85,10.85,0,0,1-.949,9.121,9.419,9.419,0,0,1-6.244,4.5,18.017,18.017,0,0,1-6.275.4,27.914,27.914,0,0,1-4.469-.8,11.975,11.975,0,0,1-1.99-.735c-.245-.122-.4-.245-.275-.551.122-.275.245-.459.612-.337a19.776,19.776,0,0,0,3.306.673,19.038,19.038,0,0,0,7.775-.337,9.818,9.818,0,0,0,7.377-8.723,11.017,11.017,0,0,0-.49-4.989,8.027,8.027,0,0,1-.643-1.377C183.17,197.292,183.231,197.261,183.261,197.2Z" transform="translate(-114.597 -136.84)"/>
    <path id="Path_29" data-name="Path 29" class="cls-3" d="M314.066,106.321H303.843c-.52-.031-.551-.031-.551-.52,0-1.286-.122-1.1,1.071-1.1h17.967c1.01,0,.918.031.918-.918v-3.673c0-.582,0-.582.551-.612,1.194,0,1.041-.092,1.041,1.01v5.142c0,.673,0,.673-.7.673Z" transform="translate(-210.447 -69.04)"/>
    <path id="Path_30" data-name="Path 30" class="cls-3" d="M321.683,65.936c-.551,0-1.133.031-1.683.031a4.949,4.949,0,0,0,.061-1.163V59.875c0-.735,0-.735.735-.735H332.7c1.071,0,.979.092.979-.979V54.7c0-.7,0-.7.673-.7,1.071,0,.949-.061.949.949v5.081c0,.8,0,.8-.826.8H322.663c-1.01,0-.979-.061-.979.949Z" transform="translate(-222.044 -37.47)"/>
    <path id="Path_31" data-name="Path 31" class="cls-3" d="M104.783,152.489a10.31,10.31,0,0,1-1.683-.031v-6.305a.315.315,0,0,1,.306-.337h13.376c.8,0,.8,0,.8-.8v-3.673c0-.52.031-.551.52-.551,1.286,0,1.1-.092,1.133,1.071V146.7c0,.735,0,.735-.735.735h-13.07c-.735,0-.735,0-.735.735C104.722,149.611,104.63,151.05,104.783,152.489Z" transform="translate(-71.534 -97.699)"/>
    <path id="Path_32" data-name="Path 32" class="cls-3" d="M321.792,20.205a6.89,6.89,0,0,1-1.592.031v-6.4c0-.245.092-.367.367-.367h13.866c.551-.031.551-.031.551-.612V8.972c0-.673,0-.673.7-.673,1.01,0,.888-.061.888.918v4.928c0,.979.092.918-.888.918H323.261c-1.5,0-1.5,0-1.5,1.469C321.822,17.756,321.792,18.981,321.792,20.205Z" transform="translate(-222.182 -5.758)"/>
    <path id="Path_33" data-name="Path 33" class="cls-3" d="M463.133,178c.275.153.275.429.4.643.429.765.826,1.561,1.255,2.357-.184.184-.122.4-.122.612V200.13c-.031.52-.031.551-.52.551h-5.724c-.367,0-.52-.122-.52-.49,0-1.316-.061-1.1,1.071-1.1h3.367c.7,0,.7,0,.7-.673v-6.765c0-4.346-.031-8.662-.031-13.009A1.6,1.6,0,0,1,463.133,178Z" transform="translate(-317.733 -123.517)"/>
    <path id="Path_34" data-name="Path 34" class="cls-3" d="M104.475,197.145H102.7a24.034,24.034,0,0,0,.061-2.571v-3.459c0-.612.031-.612.612-.612H115.4c.7,0,.7,0,.7-.7v-3.734c0-.673,0-.673.643-.673,1.133,0,1.01-.122,1.01,1.01v4.836c0,.857,0,.857-.826.857H105.394c-1.1,0-1.01-.092-1.01.979C104.445,194.451,104.445,195.8,104.475,197.145Z" transform="translate(-71.256 -128.643)"/>
    <path id="Path_35" data-name="Path 35" class="cls-3" d="M96.92,237.053H86.788c-.337.031-.49-.122-.49-.49,0-1.377-.061-1.133,1.041-1.133H104.97c1.01,0,.979.122.979-1.01v-3.459c0-.551.031-.551.582-.582h.061c.888-.031.888-.031.888.888V236.1c0,.979.061.918-.918.918-3.153.031-6.4.031-9.642.031Z" transform="translate(-59.875 -159.858)"/>
    <path id="Path_36" data-name="Path 36" class="cls-3" d="M396.85,62.3c.643.918,1.1,1.9,1.653,2.847-.245.245-.122.551-.122.826V79.624c0,.888.122.888-.857.888h-6.367c-.857,0-.857,0-.857-.826s0-.826.857-.826h4.836c.8,0,.8,0,.8-.8V63.249A2,2,0,0,1,396.85,62.3Z" transform="translate(-270.826 -43.231)"/>
    <path id="Path_37" data-name="Path 37" class="cls-3" d="M30.434,152.154a3.733,3.733,0,0,1-1.592-1.408c0-.092-.031-.184-.031-.275a3.071,3.071,0,0,1,2.877-3.949,10.1,10.1,0,0,1,3.826.429,2.054,2.054,0,0,0,.857.184h-.031c.122.184.306.153.459.153H36.77c.061.122.184.122.306.153h-.031c.061.061.092.092.153,0a.847.847,0,0,0,.275-.031c.031.092-.031.214.092.275.153.092.245,0,.306-.122a2.873,2.873,0,0,0,.184-.459l1.653-4.316c.214-.551.245-.582.8-.367,1.377.52,1.377.52.857,1.9-.582,1.5-1.163,3.03-1.745,4.53-.245.612-.245.612-.826.367a11.288,11.288,0,0,0-5.112-1.071,4.287,4.287,0,0,0-1.837.459,2.938,2.938,0,0,0-1.5,3.153A.766.766,0,0,1,30.434,152.154Z" transform="translate(-19.896 -98.742)"/>
    <path id="Path_38" data-name="Path 38" class="cls-3" d="M577.521,152.033a3.108,3.108,0,0,1-1.622-1.561,4.516,4.516,0,0,0-.031-.643,3.062,3.062,0,0,1,2.877-3.4,10.191,10.191,0,0,1,3.336.245,4.435,4.435,0,0,0,1.071.214h-.031c.092.184.306.153.459.153h-.031c.092.122.153.184.275.031a3.993,3.993,0,0,1,.765.306c0,.153.061.306.245.306s.214-.184.275-.306c.551-1.408,1.071-2.785,1.592-4.193.459-1.163.245-1.163,1.5-.643a1.491,1.491,0,0,0,.214.092c.643.306.643.306.4.979-.673,1.745-1.316,3.459-1.99,5.2-.214.551-.214.551-.765.306a11.193,11.193,0,0,0-5.265-1.133,4.272,4.272,0,0,0-1.5.337,2.79,2.79,0,0,0-1.775,2.785A4.587,4.587,0,0,0,577.521,152.033Z" transform="translate(-399.584 -98.682)"/>
    <path id="Path_39" data-name="Path 39" class="cls-3" d="M262.19,152.175a3.341,3.341,0,0,1-1.469-1.286c-.061-.092-.031-.275-.153-.337v-.4a3.039,3.039,0,0,1,3.03-3.581,10.233,10.233,0,0,1,4.5.7,2.071,2.071,0,0,0,.826.214h-.031c.582.49.643.459.888-.184.582-1.469,1.133-2.969,1.714-4.438.214-.582.245-.582.8-.367,1.408.52,1.408.52.888,1.867-.582,1.5-1.163,3-1.745,4.53a1.332,1.332,0,0,1-.306.582c-.49-.214-.979-.429-1.469-.612a10.346,10.346,0,0,0-4.1-.7,5.919,5.919,0,0,0-1.286.184,2.953,2.953,0,0,0-2.173,3.122A4.9,4.9,0,0,1,262.19,152.175Z" transform="translate(-180.793 -98.793)"/>
    <path id="Path_40" data-name="Path 40" class="cls-3" d="M188.9,152.093a3.613,3.613,0,0,1-1.592-1.439,1.882,1.882,0,0,0-.031-.429,3.02,3.02,0,0,1,2.816-3.765,9.76,9.76,0,0,1,3.765.367,13.589,13.589,0,0,1,1.867.673c.551.245.582.245.8-.337.551-1.408,1.1-2.816,1.622-4.255.306-.826.306-.826,1.133-.49,1.1.49,1.1.49.673,1.622l-1.745,4.591c-.245.673-.52.765-1.133.429a9.134,9.134,0,0,0-5.234-1.041,2.885,2.885,0,0,0-.918.214,2.985,2.985,0,0,0-2.02,3.459Z" transform="translate(-129.877 -98.681)"/>
    <path id="Path_41" data-name="Path 41" class="cls-3" d="M267.833,94.3a6.919,6.919,0,0,1,0,1.592h-12.09c-.643,0-.643,0-.643-.643v-.306c0-.643,0-.643.643-.643Z" transform="translate(-177.009 -65.436)"/>
    <path id="Path_42" data-name="Path 42" class="cls-3" d="M267.714,47.648a6.89,6.89,0,0,1,.031,1.592H255.96c-1.01,0-1.01,0-.979-1.01.031-.551.031-.582.582-.582C259.6,47.617,263.674,47.617,267.714,47.648Z" transform="translate(-176.92 -33.048)"/>
    <path id="Path_43" data-name="Path 43" class="cls-3" d="M413.117,18.584a22.9,22.9,0,0,1-1.653,2.571,1.108,1.108,0,0,1-.092-.7V9c0-.7,0-.7.735-.7h.214c.643,0,.643,0,.643.673V17.85C412.995,18.095,412.872,18.37,413.117,18.584Z" transform="translate(-285.44 -5.759)"/>
    <path id="Path_44" data-name="Path 44" class="cls-3" d="M488.3,157.439v2.234c-.214,0-.214-.184-.275-.306a40.782,40.782,0,0,0-2.541-4.867q-3.9-6.611-7.805-13.284a1.034,1.034,0,0,1-.275-.582c.551-.245.612-.245.918.245.826,1.347,1.622,2.724,2.418,4.1q3.489,5.969,7.04,11.907C487.9,157.133,487.929,157.5,488.3,157.439Z" transform="translate(-331.266 -97.477)"/>
    <path id="Path_45" data-name="Path 45" class="cls-3" d="M15.4,193.5c.061.031.153.031.214.061a33.27,33.27,0,0,0,4.346,2.387,7.25,7.25,0,0,1,1.867,1.133,3.06,3.06,0,0,1,1.163,1.469c-1.53-.826-3.183-1.469-4.683-2.449a14.57,14.57,0,0,1-2.541-1.99C15.614,193.929,15.4,193.775,15.4,193.5Z" transform="translate(-10.677 -134.272)"/>
    <path id="Path_46" data-name="Path 46" class="cls-3" d="M563,194a.521.521,0,0,1,.214.031,36.5,36.5,0,0,0,4.438,2.387,6.873,6.873,0,0,1,2.234,1.622c.184.214.4.367.4.673a10.371,10.371,0,0,1-2.051-.949,18.248,18.248,0,0,1-4.285-2.663A2.266,2.266,0,0,1,563,194Z" transform="translate(-390.665 -134.619)"/>
    <path id="Path_47" data-name="Path 47" class="cls-3" d="M247.7,194a.276.276,0,0,1,.153.031,44.172,44.172,0,0,0,4.9,2.6,6.013,6.013,0,0,1,1.867,1.408c.153.184.367.337.367.612-.061,0-.153.031-.214,0a27.878,27.878,0,0,1-5.877-3.367C248.4,194.918,247.884,194.612,247.7,194Z" transform="translate(-171.874 -134.619)"/>
    <path id="Path_48" data-name="Path 48" class="cls-3" d="M175.182,194.482a.438.438,0,0,1,.337.092,31.8,31.8,0,0,0,3.642,1.928,8.108,8.108,0,0,1,2.694,1.837c.184.214.4.367.4.673a13.667,13.667,0,0,1-2.265-1.041,17.645,17.645,0,0,1-4.346-2.816C175.427,195,175.121,194.849,175.182,194.482Z" transform="translate(-121.547 -134.948)"/>
    <path id="Path_49" data-name="Path 49" class="cls-3" d="M196.4,67.7v1.806a7.5,7.5,0,0,0-1.653-.092c-.52-.031-.551-.031-.551-.551,0-1.347-.031-1.1,1.041-1.133A2.962,2.962,0,0,0,196.4,67.7Z" transform="translate(-134.749 -46.978)"/>
    <path id="Path_50" data-name="Path 50" class="cls-3" d="M223.755,197.194c-.061-.061-.092-.092-.031-.153s.122,0,.153.031C223.847,197.132,223.786,197.163,223.755,197.194Z" transform="translate(-155.213 -136.711)"/>
    <path id="Path_51" data-name="Path 51" class="cls-1" d="M390.659,161.935a1.777,1.777,0,0,1,.582.826,12.778,12.778,0,0,1,1.041,3.949,29.983,29.983,0,0,1-.122,8.111,11.353,11.353,0,0,1-1.316,3.949,4.14,4.14,0,0,1-3.214,2.2,3,3,0,0,1-2.357-.582.521.521,0,0,0-.031-.214,15.966,15.966,0,0,1-1.224-5.173,27.113,27.113,0,0,1,.337-7.713,9.508,9.508,0,0,1,1.439-3.673,4.025,4.025,0,0,1,3.887-1.867C389.986,161.813,390.322,161.874,390.659,161.935Z" transform="translate(-266.379 -112.227)"/>
    <path id="Path_52" data-name="Path 52" class="cls-3" d="M386.973,158.234c-.337-.061-.673-.153-1.01-.184a3.917,3.917,0,0,0-3.887,1.867,9.81,9.81,0,0,0-1.439,3.673,27.211,27.211,0,0,0-.337,7.713,15.781,15.781,0,0,0,1.224,5.173.521.521,0,0,1,.031.214,3.589,3.589,0,0,1-1.928-2.234,3.277,3.277,0,0,0-.306-1.194,25.747,25.747,0,0,1-.673-8.387,18.786,18.786,0,0,1,.673-4.132,7.825,7.825,0,0,1,1.286-2.694,3.869,3.869,0,0,1,3.336-1.653,7.732,7.732,0,0,1,1.714.337A2.63,2.63,0,0,1,386.973,158.234Z" transform="translate(-262.693 -108.526)"/>
    <path id="Path_53" data-name="Path 53" class="cls-1" d="M392.694,155.9a6.405,6.405,0,0,1,.918,1.9,20.769,20.769,0,0,1,1.255,6.091,30.287,30.287,0,0,1-.7,9.825,16.773,16.773,0,0,1-2.724,5.969,11.09,11.09,0,0,1-6.979,4.377,13.741,13.741,0,0,1-7.775-.643,4.049,4.049,0,0,1-1.286-.7c.735.214,1.439.582,2.2.765a14.1,14.1,0,0,0,7.805-.122,11.582,11.582,0,0,0,7.009-6.183,19.9,19.9,0,0,0,1.9-6.367,32.086,32.086,0,0,0,0-9.06,22,22,0,0,0-1.377-5.234A1.232,1.232,0,0,1,392.694,155.9Z" transform="translate(-260.487 -108.181)"/>
    <path id="Path_54" data-name="Path 54" class="cls-1" d="M385.053,155.984a11.307,11.307,0,0,0-1.714-.337A3.869,3.869,0,0,0,380,157.3a8.1,8.1,0,0,0-1.286,2.694,18.788,18.788,0,0,0-.673,4.132,25.815,25.815,0,0,0,.673,8.387,3.277,3.277,0,0,1,.306,1.194,7.4,7.4,0,0,1-.979-2.969,27.347,27.347,0,0,1,.122-10.223,9.143,9.143,0,0,1,1.316-3.306,3.961,3.961,0,0,1,4.316-1.837A2.822,2.822,0,0,1,385.053,155.984Z" transform="translate(-262.028 -107.745)"/>
    <path id="Path_55" data-name="Path 55" class="cls-1" d="M174.189,82.2c.122.122.275.214.184.429C174.281,82.506,174.159,82.384,174.189,82.2Z" transform="translate(-120.86 -57.04)"/>
    <path id="Path_56" data-name="Path 56" class="cls-1" d="M171.106,112.553c-.061-.122-.306.122-.306-.153C170.953,112.431,171.045,112.461,171.106,112.553Z" transform="translate(-118.512 -77.996)"/>
    <path id="Path_57" data-name="Path 57" class="cls-1" d="M173.7,81.2c.122.061.122.184.153.306C173.7,81.475,173.7,81.353,173.7,81.2Z" transform="translate(-120.524 -56.346)"/>
    <path id="Path_58" data-name="Path 58" class="cls-1" d="M35.606,155.725a2.68,2.68,0,0,1-.857-.184,10.1,10.1,0,0,0-3.826-.429,3.071,3.071,0,0,0-2.877,3.949.847.847,0,0,1,.031.275,2.817,2.817,0,0,1,.4-3.642,3.012,3.012,0,0,1,1.53-.826A8.677,8.677,0,0,1,35.606,155.725Z" transform="translate(-19.13 -107.363)"/>
    <path id="Path_59" data-name="Path 59" class="cls-1" d="M54.159,158.1c-.153-.031-.337,0-.459-.153A.379.379,0,0,1,54.159,158.1Z" transform="translate(-37.254 -109.585)"/>
    <path id="Path_60" data-name="Path 60" class="cls-1" d="M65.9,199.8c.092.092.214.153.214.306C65.961,200.106,65.992,199.892,65.9,199.8Z" transform="translate(-45.72 -138.644)"/>
    <path id="Path_61" data-name="Path 61" class="cls-1" d="M55.506,158.653c-.122-.031-.245-.031-.306-.153C55.322,158.5,55.445,158.5,55.506,158.653Z" transform="translate(-38.295 -109.985)"/>
    <path id="Path_62" data-name="Path 62" class="cls-1" d="M56.253,159c-.061.061-.092.031-.153,0Z" transform="translate(-38.92 -110.332)"/>
    <path id="Path_63" data-name="Path 63" class="cls-1" d="M582.194,155.516a3.335,3.335,0,0,1-1.071-.214,10.19,10.19,0,0,0-3.336-.245,3.062,3.062,0,0,0-2.877,3.4,4.525,4.525,0,0,1,.031.643,2.807,2.807,0,0,1,.918-3.826,4.562,4.562,0,0,1,2.081-.612,8.89,8.89,0,0,1,3.245.49C581.551,155.272,581.949,155.149,582.194,155.516Z" transform="translate(-398.656 -107.308)"/>
    <path id="Path_64" data-name="Path 64" class="cls-1" d="M599.959,157.6c-.153,0-.367.031-.459-.153A.392.392,0,0,1,599.959,157.6Z" transform="translate(-415.993 -109.238)"/>
    <path id="Path_65" data-name="Path 65" class="cls-1" d="M601.175,158.031c-.122.153-.214.092-.276-.031C600.992,158,601.084,158.031,601.175,158.031Z" transform="translate(-416.964 -109.638)"/>
    <path id="Path_66" data-name="Path 66" class="cls-1" d="M268.123,156.013a1.949,1.949,0,0,1-.826-.214,10.3,10.3,0,0,0-4.5-.7,3.024,3.024,0,0,0-3.03,3.581v.429c-.337-.092-.275-.429-.337-.673a2.9,2.9,0,0,1,1.683-3.367,3.8,3.8,0,0,1,1.622-.367A10.722,10.722,0,0,1,268.123,156.013Z" transform="translate(-179.961 -107.345)"/>
    <path id="Path_67" data-name="Path 67" class="cls-1" d="M297.8,200.3c.214.092.245.245.214.459C297.831,200.667,297.861,200.453,297.8,200.3Z" transform="translate(-206.639 -138.991)"/>
    <path id="Path_68" data-name="Path 68" class="cls-1" d="M260.582,169.1c.153.061.092.245.153.337A.308.308,0,0,1,260.582,169.1Z" transform="translate(-180.807 -117.341)"/>
  </g>
</svg>
